<svg width="651" height="651" viewBox="0 0 651 651" fill="none" xmlns="http://www.w3.org/2000/svg">
<mask id="mask0_13_65" style="mask-type:alpha" maskUnits="userSpaceOnUse" x="0" y="0" width="651" height="651">
<circle cx="325.152" cy="325.836" r="324.897" fill="white"/>
</mask>
<g mask="url(#mask0_13_65)">
<circle cx="325.152" cy="325.836" r="324.897" fill="white"/>
<path d="M650.416 325.913C650.416 505.349 504.955 650.81 325.519 650.81C146.084 650.81 0.622498 505.349 0.622498 325.913C0.622498 146.478 146.084 1.01636 325.519 1.01636C504.955 1.01636 650.416 146.478 650.416 325.913Z" fill="url(#paint0_linear_13_65)"/>
<path d="M650.416 325.913C650.416 505.349 504.955 650.81 325.519 650.81C146.084 650.81 0.622498 505.349 0.622498 325.913C0.622498 146.478 146.084 1.01636 325.519 1.01636C504.955 1.01636 650.416 146.478 650.416 325.913Z" fill="url(#paint1_linear_13_65)" fill-opacity="0.4"/>
<path d="M646.416 325.913C646.416 503.139 502.746 646.81 325.519 646.81C148.293 646.81 4.6225 503.139 4.6225 325.913C4.6225 148.687 148.293 5.01636 325.519 5.01636C502.746 5.01636 646.416 148.687 646.416 325.913Z" stroke="url(#paint2_linear_13_65)" stroke-opacity="0.4" stroke-width="8"/>
<rect x="15.9575" y="176.36" width="93.793" height="199.418" fill="white"/>
<rect x="538.409" y="178.776" width="95.5498" height="199.418" fill="white"/>
<rect x="112.531" y="278.677" width="419.545" height="25.129" fill="white"/>
<path fill-rule="evenodd" clip-rule="evenodd" d="M641.453 368.421H654.007C658.89 368.421 662.377 372.605 662.377 376.79C662.377 380.975 658.89 385.16 654.007 385.16H633.083H536.829H530.324C528.218 384.865 528.411 382.288 528.411 382.288V369.118H528.459L530.552 311.924H119.034V367.508L116.827 367.502C116.827 367.502 117.5 370.59 116.827 380.233C116.521 384.613 113.666 385.089 113.666 385.089C113.666 385.089 124.648 385.117 143.048 385.16H114.152H17.8982H-5.11891C-9.30384 385.16 -13.4888 380.975 -13.4888 376.79C-13.4888 372.605 -10.0013 368.421 -5.11891 368.421H10.2258L16.1331 182.97C16.1331 170.01 29.0927 170.01 40.2009 170.01H95.7419C99.9269 170.01 116.107 170.01 116.107 182.97L116.941 216.368C127.404 195.444 142.051 177.309 159.488 162.662C160.186 161.267 161.581 160.569 162.976 159.872C181.11 145.922 202.035 134.762 225.052 126.392C225.75 125.695 225.75 125.695 226.447 125.695C256.439 114.535 288.524 109.652 320.608 108.955C402.912 107.56 497.072 142.434 534.737 219.856V182.97C536.829 170.01 545.897 170.01 559.878 170.01H614.689C633.083 170.01 633.083 179.979 633.083 184.861L641.453 368.421ZM219.472 147.317C203.43 154.292 188.085 162.662 174.833 173.124V265.89H219.472V147.317ZM236.909 140.342V265.89H281.549V129.88C266.204 131.972 251.557 135.46 236.909 140.342ZM531.249 294.487L531.947 283.327H119.034L119.731 294.487H531.249ZM421.046 265.89H465.686V168.241V167.544C451.736 158.477 437.089 150.804 421.046 144.527V265.89ZM359.667 265.89H404.307V138.947C389.659 134.065 374.315 131.275 359.667 129.182V265.89ZM483.123 265.89H530.552C524.274 231.015 506.837 203.116 483.123 181.494V265.89ZM319.911 126.392H319.911C313.521 126.392 307.131 126.978 300.205 127.612L300.201 127.612C299.568 127.67 298.931 127.729 298.288 127.787V265.192H342.23V127.09C334.558 126.392 327.583 126.392 319.911 126.392ZM157.396 265.89V189.166C138.564 209.393 125.311 234.503 119.731 265.89H157.396ZM32.7954 184.861C19.8359 194.118 23.5386 353.336 25.39 360.741C26.5316 365.308 28.0951 367.894 32.7954 368.147C45.755 368.844 84.6337 369.815 95.7419 369.118C98.8326 368.924 103.147 364.404 103.147 358.85C103.147 354.751 103.442 326.211 103.597 311.253L103.597 311.231L103.597 311.228L103.598 311.197L103.599 311.101C103.653 305.872 103.689 302.34 103.689 302.159V300.764C103.689 300.764 109.028 198.313 95.7419 184.861C84.6337 173.614 45.755 175.604 32.7954 184.861ZM552.872 188.469C541.395 199.905 540.887 360.741 545.897 368.421C550.907 376.1 616.343 376.1 624.713 368.421C633.083 360.741 628.883 199.905 618.435 188.469C607.988 177.033 559.878 181.486 552.872 188.469Z" fill="white"/>
<path d="M247.758 118.87C250.132 118.259 245.874 112.508 246.718 112.396L248.23 103.969L247.063 99.3888L243.045 87.0731L242.44 67.2815L229 66.4172L226.969 70.3928L223.512 91.3512L223.728 95.8021L232.457 116.904L243.394 120.093L247.758 118.87Z" fill="white"/>
<path d="M201.658 218.804L175.681 231.028L174.675 217.175L174.772 207.401L176.152 203.422L184.559 184.499L187.977 183.351L200.933 181.772L212.479 172.9L215.597 171.165L227.515 169.054L235.008 157.436L238.33 152.972L239.601 152.209L245.286 137.662L249.537 136.463L256.632 136.951L258.472 166.283C259.727 166.892 262.072 168.477 261.412 169.947C260.753 171.417 259.178 173.945 258.472 175.025L246.812 179.048L244.708 190.437L241.892 192.319C238.955 192.81 233.053 193.791 232.939 193.791C232.825 193.791 213.979 209.273 204.571 217.015L201.658 218.804Z" fill="white"/>
<path d="M125.841 285.743L129.484 284.058L128.148 277.305L124.235 268.574L105.81 264.107C102.18 264.214 93.8329 266.536 89.4881 274.969C85.1432 283.402 90.8118 296.041 94.1891 301.307C94.1891 301.307 96.7649 300.539 98.4814 299.642C110.266 293.489 125.841 285.743 125.841 285.743Z" fill="white"/>
<path d="M61.8328 267.992L66.7395 266.635C67.4061 269.745 68.765 276.991 68.8317 280.324C68.915 284.49 60.333 291.322 53.9174 295.071C47.5017 298.821 39.5863 293.072 32.2541 290.572C26.3883 288.572 23.5332 279.407 22.8389 275.074L27.8381 274.408C32.5596 273.769 38.9126 272.968 45.8477 271.628C52.1937 270.401 57.7223 269.103 61.8328 267.992Z" fill="white"/>
<path d="M-2.13948 313.909L-3.23486 305.856C-0.825052 302.287 17.6568 296.925 18.3616 296.866C19.2425 296.793 31.5757 299.803 31.9428 299.876C32.2364 299.935 37.5506 314.925 40.12 322.29L35.0738 324.054L-2.13948 313.909Z" fill="white"/>
<path d="M128.787 236.803C125.375 238.278 126.218 238.795 124.647 239.451C125.631 243.182 126.532 247.422 130.058 250.579C132.643 252.894 136.275 254.883 145.555 253.982C155.682 252.998 155.354 248.488 157.404 241.764V226.717C157.404 217.779 157.445 211.752 157.199 209.743C156.953 207.734 153.062 226.307 128.787 236.803Z" fill="white"/>
<path d="M284.201 62.1289C281.778 62.1289 279.815 64.0684 279.815 66.4612C279.815 68.8539 281.778 70.7935 284.201 70.7935C286.623 70.7935 288.586 68.8539 288.586 66.4612C288.586 64.0684 286.623 62.1289 284.201 62.1289ZM223.509 91.4241C226.269 91.5248 229.286 90.4147 231.685 88.2495C234.438 85.7652 235.868 82.4322 235.51 79.3246C235.035 75.0421 231.4 71.2687 227.086 70.2635C224.547 76.4481 223.367 83.765 223.509 91.4241ZM276.317 86.5429C278.953 88.5661 281.712 89.5582 284.358 89.8102C282.023 87.5942 280.001 85.0604 278.361 82.2601C277.765 81.2409 278.117 79.9356 279.15 79.3454C280.184 78.7569 281.503 79.1042 282.101 80.1248C283.559 82.6176 285.355 84.8746 287.44 86.8344C288.315 87.6587 289.287 88.3903 290.262 89.1085C292.21 88.4682 293.969 87.4923 295.346 86.2564C299.938 82.1335 302.49 74.0625 295.864 63.749C295.528 63.2091 287.439 50.5257 271.9 47.9148C249.088 44.1545 236.303 56.4631 231.871 61.9348C230.78 63.2802 229.836 64.7866 228.959 66.3599C234.629 68.0534 239.157 73.0416 239.804 78.8524C240.313 83.3071 238.366 87.9961 234.598 91.3988C231.477 94.2148 227.625 95.7632 223.931 95.7632C223.862 95.7632 223.796 95.7431 223.727 95.7419C224.643 106.93 231.622 122.462 232.622 123.462C234.122 122.962 235.408 122.581 236.969 122.061C238.469 121.561 239.981 121.127 239.981 121.127L242.058 120.483C242.058 120.483 243.818 120.053 243.678 119.9C240.448 116.371 239.969 113.412 240.851 108.912C241.654 104.821 243.984 101.378 247.125 99.2468C246.061 93.5242 246.742 88.4742 249.949 84.9239C257.255 76.8088 268.356 80.4442 276.317 86.5429ZM248.253 103.774C246.705 105.288 245.559 107.348 245.094 109.724C244.465 112.93 245.839 116.945 247.6 118.912C249.436 118.437 252.318 117.708 255.791 116.842C252.075 111.336 249.957 109.072 248.253 103.774Z" fill="#306998"/>
<path d="M284.201 62.1289C281.778 62.1289 279.815 64.0684 279.815 66.4612C279.815 68.8539 281.778 70.7935 284.201 70.7935C286.623 70.7935 288.586 68.8539 288.586 66.4612C288.586 64.0684 286.623 62.1289 284.201 62.1289ZM223.509 91.4241C226.269 91.5248 229.286 90.4147 231.685 88.2495C234.438 85.7652 235.868 82.4322 235.51 79.3246C235.035 75.0421 231.4 71.2687 227.086 70.2635C224.547 76.4481 223.367 83.765 223.509 91.4241ZM276.317 86.5429C278.953 88.5661 281.712 89.5582 284.358 89.8102C282.023 87.5942 280.001 85.0604 278.361 82.2601C277.765 81.2409 278.117 79.9356 279.15 79.3454C280.184 78.7569 281.503 79.1042 282.101 80.1248C283.559 82.6176 285.355 84.8746 287.44 86.8344C288.315 87.6587 289.287 88.3903 290.262 89.1085C292.21 88.4682 293.969 87.4923 295.346 86.2564C299.938 82.1335 302.49 74.0625 295.864 63.749C295.528 63.2091 287.439 50.5257 271.9 47.9148C249.088 44.1545 236.303 56.4631 231.871 61.9348C230.78 63.2802 229.836 64.7866 228.959 66.3599C234.629 68.0534 239.157 73.0416 239.804 78.8524C240.313 83.3071 238.366 87.9961 234.598 91.3988C231.477 94.2148 227.625 95.7632 223.931 95.7632C223.862 95.7632 223.796 95.7431 223.727 95.7419C224.643 106.93 231.622 122.462 232.622 123.462C234.122 122.962 235.408 122.581 236.969 122.061C238.469 121.561 239.981 121.127 239.981 121.127L242.058 120.483C242.058 120.483 243.818 120.053 243.678 119.9C240.448 116.371 239.969 113.412 240.851 108.912C241.654 104.821 243.984 101.378 247.125 99.2468C246.061 93.5242 246.742 88.4742 249.949 84.9239C257.255 76.8088 268.356 80.4442 276.317 86.5429ZM248.253 103.774C246.705 105.288 245.559 107.348 245.094 109.724C244.465 112.93 245.839 116.945 247.6 118.912C249.436 118.437 252.318 117.708 255.791 116.842C252.075 111.336 249.957 109.072 248.253 103.774Z" fill="#306998"/>
<path d="M40.6067 369.434C27.9251 373.621 24.1805 377.256 -1.19238 384.004L4.39355 403.304L32.8936 390.804C41.8936 381.138 49.1136 366.625 40.6067 369.434Z" fill="white"/>
<path d="M93.9928 381.011C89.5404 382.965 75.2831 389.093 55.5114 397.925C50.7559 400.05 44.8936 393.804 44.8936 393.804L57.3936 373.804L76.3936 364.304C83.8936 369.138 97.9375 379.279 93.9928 381.011Z" fill="white"/>
<path d="M99.6224 338.679C95.025 340.785 92.0263 343.265 87.8937 345.804C92.8937 351.304 102.194 362.904 103.394 363.304C104.594 363.704 127.015 360.387 127.988 352.606C128.344 349.762 127.86 345.579 127.86 345.579C121.693 341.913 102.729 337.255 99.6224 338.679Z" fill="white"/>
<path d="M3.67886 382.635C5.49085 387.262 5.67182 389.163 9.34292 390.543C17.4915 393.586 27.0021 386.798 30.4384 378.783C31.2505 376.912 31.8211 374.74 32.1254 372.61C22.5479 375.858 15.3883 379.564 3.67886 382.635ZM124.893 333.253C119.775 328.069 106.183 335.619 100.115 338.276C98.9434 338.789 97.7706 339.427 96.6074 340.185C96.4538 340.286 96.2951 340.386 96.141 340.486C95.9594 342.68 96.1401 344.81 96.7114 346.577C97.916 350.285 100.956 353.041 105.051 354.138C109.853 355.423 114.775 353.145 118.825 350.892C121.194 349.575 128.009 347.27 128.009 347.27C128.133 344.711 127.138 335.203 124.893 333.253ZM123.724 363.056C126.185 360.227 128.053 353.876 128.009 352.496C127.939 350.296 121.517 354.132 120.948 354.649C119.444 355.991 117.746 357.064 115.937 357.856C112.104 359.534 107.777 359.934 103.766 358.861C98.5348 357.458 94.6034 353.786 92.9777 348.787C92.4231 347.07 92.1452 345.095 92.1016 343.067C76.1658 353.243 58.3569 363.03 36.2334 370.973C35.9691 374.182 35.1812 377.709 33.9275 380.607C31.1569 387.06 26.1066 391.996 20.5538 394.427C16.3175 396.282 11.7912 396.676 7.77011 395.169C2.67038 393.255 1.11122 390.511 -0.985093 383.953C-2.59729 384.262 -4.51687 385.183 -6.44045 385.864C-16.1568 389.303 -20.3524 393.093 -26.181 399.097C-27.6052 403.08 -30.8796 401.113 -30.4321 404.765C-23.8862 397.782 -12.4554 400.638 -4.90997 406.006C-0.553405 409.128 -1.54705 410.856 -0.932735 416.784L54.8958 398.196C54.1528 395.029 54.0733 391.703 54.7267 388.432C55.8395 382.805 58.9999 377.764 63.6272 374.244C68.8377 370.267 74.9788 368.924 80.0506 370.642C85.1405 372.375 89.1634 376.999 90.6277 382.552L103.881 376.749C114.211 372.227 121.561 368.259 123.724 363.056ZM86.7407 384.253C85.5694 380.148 82.4279 376.617 78.5699 375.305C74.6189 373.968 69.5917 375.088 65.451 378.247C61.8651 380.978 59.4315 384.805 58.5954 389.025C58.1067 391.476 58.1872 394.066 58.7679 396.5L86.7407 384.253Z" fill="#306998"/>
<path d="M-63.9284 402.231C-62.656 406.006 -62.2702 406.907 -61.7339 407.674C-60.2017 409.867 -51.1099 407.466 -48.3819 402.15C-47.7391 400.912 -47.2194 399.387 -46.8653 397.833C-52.9546 398.079 -62.0717 402.526 -63.9284 402.231ZM8.68695 411.395C8.95902 410.386 9.68893 404.963 9.77145 403.899C9.39945 404.229 9.03071 404.573 8.64326 404.835C7.62068 405.508 6.50213 405.931 5.33746 406.114C2.87047 406.501 0.203914 405.797 -2.15334 404.043C-5.22707 401.752 -7.32971 398.034 -7.92318 393.84C-8.12472 392.4 -8.99691 388.347 -8.86259 386.788C-19.373 390.84 -30.1446 396.776 -44.2455 397.679C-44.6609 400.067 -45.4089 402.436 -46.4021 404.356C-48.6009 408.635 -52.0674 411.224 -55.6413 411.785C-58.3678 412.212 -59.8939 412.798 -62.2517 411.036C-64.1541 409.615 -65.4563 408.424 -66.3009 405.284C-66.6345 404.043 -66.8159 401.917 -66.8159 401.917C-66.8159 401.917 -72.8684 402.244 -76.5417 404.022C-81.0635 406.21 -87.2353 410.256 -87.2525 413.148C-83.7211 422.263 -67.5694 421.423 -67.5694 421.423C-67.5694 421.423 -53.7887 421.325 -46.6151 421.661C-39.4415 421.996 -35.0294 422.667 -35.0294 422.667C-35.2307 420.078 -35.0153 417.521 -34.358 415.177C-33.2342 411.142 -30.9102 408.032 -27.8134 406.424C-24.3253 404.604 -20.4796 405.011 -17.5276 407.504C-14.5658 410.014 -12.4829 414.481 -12.0317 419.059L-3.5014 417.721C3.14678 416.678 5.82075 414.775 8.68695 411.395ZM-14.5334 419.452C-14.921 416.045 -16.5538 412.618 -18.7989 410.717C-21.0987 408.776 -24.2486 408.459 -27.0204 409.904C-29.4204 411.153 -31.2057 413.506 -32.0494 416.531C-32.5414 418.288 -32.6978 420.283 -32.5372 422.276L-14.5334 419.452Z" fill="#306998"/>
<path d="M27.7065 274.483C30.8734 280.242 35.22 284.743 39.7905 286.821C49.931 291.411 59.3794 284.366 61.5092 275.148C62.0179 272.998 62.1771 270.457 62.038 267.938C51.6947 270.729 40.3332 272.972 27.7065 274.483ZM157.445 203.759C150.283 213.566 145.788 226.476 132.86 234.595C131.621 235.076 130.41 235.705 129.238 236.481C129.083 236.584 128.922 236.686 128.767 236.788C129.063 239.398 129.244 240.994 130.313 243.179C133.157 248.99 135.969 248.87 140.825 249.221C144.987 249.521 147.37 248.482 150.283 245.497C153.405 242.297 158.07 234.381 157.445 225.671C157.28 223.376 158.111 212.367 157.445 203.759ZM155.215 260.549L157.445 256.915C157.445 256.915 157.382 231.544 157.445 237.844C157.508 244.144 156.046 247.971 152.18 250.707C148.314 253.442 145.776 254.418 141.176 254.118C135.267 253.733 130.056 252.565 127.019 246.381C125.981 244.257 125.216 241.885 124.697 239.446C108.589 249.815 90.2554 259.688 66.4647 266.664C66.8996 270.483 66.7544 274.407 65.9715 277.739C64.2523 285.16 59.5424 290.498 53.6722 292.774C49.1937 294.51 44.0423 294.461 39.037 292.189C32.6884 289.305 26.9439 283.079 23.0019 274.971C21.2059 275.156 19.4448 275.361 17.5979 275.516L17.5947 275.517C-3.2805 276.528 -4.69533 293.283 -4.69533 293.283C-4.69533 293.283 -4.64196 301.489 -3.28051 305.922C2.72396 300.376 17.5241 298.95 26.8522 303.725C32.619 307.973 37.4846 315.299 39.5648 322.482L94.3185 301.256C92.7268 297.372 91.867 293.374 91.8685 289.525C91.8583 282.903 94.355 277.221 98.9016 273.532C104.018 269.362 110.822 268.46 117.092 271.106C123.388 273.772 126.477 277.243 129.455 284.073C129.455 284.073 143.366 275.949 149.515 267.894C153.536 262.628 155.215 260.549 155.215 260.549ZM126.369 285.437C124.064 280.376 121.225 278.547 116.454 276.528C111.569 274.469 106.005 275.233 101.938 278.544C98.4157 281.407 96.4803 285.716 96.4862 290.682C96.4861 293.566 97.1773 296.683 98.4119 299.669L126.369 285.437ZM35.4166 323.943C33.9093 318.194 29.8452 311.997 25.1541 308.543C16.8382 302.447 -2.3099 312.371 -2.27747 312.823C-1.53506 323.168 -0.0251898 326.065 2.9415 329.457C8.52439 335.84 23.1717 327.955 35.4166 323.943Z" fill="#306998"/>
<path fill-rule="evenodd" clip-rule="evenodd" d="M198.968 190.526C195.232 189.731 191.274 187.1 187.993 183.343C197.153 180.157 205.254 176.635 212.508 172.872C213.015 174.719 213.304 176.631 213.269 178.311C213.161 185.501 207.254 192.276 198.968 190.526ZM264.07 134.102C267.871 141.205 265.548 154.973 265.548 154.973C265.548 154.973 261.842 170.694 260.674 171.376C260.07 170.873 259.578 170.493 259.232 170.225C258.952 170.008 258.767 169.865 258.695 169.79C258.534 169.623 252.901 166.335 249.278 166.39C245.288 166.45 243.995 167.066 240.853 170.998C238.059 174.48 237.11 179.106 238.179 184.019C238.795 186.877 240.076 189.704 241.883 192.327L204.515 217.034C201.815 212.043 197.018 207.4 192.043 205.189C183.442 201.395 177.655 205.169 174.789 207.394C174.789 206.636 174.79 205.863 174.792 205.084C174.799 201.237 174.806 197.252 174.643 194.306C174.79 189.827 174.737 190.046 174.688 190.246C174.665 190.339 174.643 190.429 174.643 190.034C174.643 190.034 177.819 187.58 180.083 186.392C181.77 185.507 183.261 184.905 184.568 184.474C188.803 189.849 194.078 193.531 199.267 194.634C203.358 195.502 207.202 194.696 210.259 192.676C214.265 190.027 216.916 185.294 217.007 179.504C217.056 176.903 216.536 173.967 215.6 171.202C232.196 162.135 233.547 158.629 233.547 158.629C233.547 158.629 234.194 158.171 235.031 157.4C239.734 157.205 250.737 155.271 251.348 146.383C251.862 138.913 250.996 137.518 249.587 136.464C253.215 135.493 257.339 134.456 261.58 133.448C262.807 133.156 263.208 132.957 263.45 133.078C263.644 133.174 263.736 133.477 264.07 134.102ZM245.335 137.639C251.051 145.681 242.938 152.915 239.009 152.915C238.771 152.915 238.54 152.935 238.316 152.973C238.509 152.481 238.646 151.973 238.705 151.456C239.367 145.675 238.179 139.915 238.179 139.915C238.179 139.915 238.465 139.69 243.127 138.286C243.819 138.078 244.557 137.862 245.335 137.639ZM253.032 170.797C255.259 171.54 256.061 171.807 258.48 175.043L244.677 190.48C243.279 188.465 242.265 186.265 241.803 184.123C241.003 180.438 241.753 176.923 243.917 174.222C246.415 171.099 248.688 169.339 252.726 170.694C252.831 170.729 252.933 170.764 253.032 170.797ZM191.551 209.043C195.597 210.84 199.616 214.776 201.66 218.797C199.506 220.063 196.964 221.404 194.307 222.805C186.511 226.916 177.727 231.549 174.852 236.344C174.714 232.959 174.756 228.533 174.793 224.696C174.827 221.08 174.857 217.988 174.725 216.787C176.091 210.667 184.382 205.878 191.551 209.043Z" fill="#306998"/>
<path d="M289.92 65.9148C289.92 68.9524 287.458 71.4148 284.42 71.4148C281.383 71.4148 278.92 68.9524 278.92 65.9148C278.92 62.8772 281.383 60.4148 284.42 60.4148C287.458 60.4148 289.92 62.8772 289.92 65.9148Z" fill="white"/>
<path d="M279.391 79.2417C279.919 78.6495 281.128 79.2417 281.128 79.2417C281.128 79.2417 284.511 85.3297 289.511 89.4147C291.511 91.0487 291.933 92.8119 292.373 93.7988C292.813 94.7857 296.851 96.4278 297.511 97.4147C298.171 98.4017 298.534 98.2399 298.094 99.4736C297.742 100.461 296.627 100.378 296.114 100.214L292.373 97.913C292.3 98.9821 292.153 101.318 292.153 102.107C292.153 103.094 291.493 103.915 290.173 103.915C289.117 103.915 288.853 102.928 288.853 102.434L289.293 95.5259C288.559 94.868 288.048 93.3545 287.092 92.0717C285.936 90.5184 283.792 88.3707 283.792 88.3707C283.792 88.3707 282.071 86.8695 281.011 85.4147C279.983 84.0047 278.511 81.2155 278.511 81.2155C278.584 80.8043 278.863 79.8338 279.391 79.2417Z" fill="black"/>
<path d="M394.122 117.631C391.749 117.02 396.006 111.269 395.163 111.156L393.65 102.73L394.817 98.149L398.836 85.8333L399.441 66.0418L412.88 65.1775L414.911 69.1531L418.368 90.1114L418.152 94.5624L409.423 115.664L398.486 118.854L394.122 117.631Z" fill="white"/>
<path d="M440.223 217.564L465.286 229.829L465.826 216.539L465.729 206.765L465.729 202.182L457.321 183.259L453.903 182.111L440.948 180.533L429.401 171.661L426.283 169.925L414.366 167.814L406.872 156.196L403.551 151.732L402.28 150.97L396.595 136.423L392.344 135.223L385.249 135.712L383.408 165.043C382.154 165.652 379.809 167.237 380.468 168.707C381.128 170.177 382.703 172.705 383.408 173.785L395.069 177.808L397.173 189.197L399.988 191.08C402.925 191.57 408.828 192.551 408.942 192.551C409.056 192.551 427.901 208.034 437.31 215.775L440.223 217.564Z" fill="white"/>
<path d="M516.04 284.504L512.397 282.818L513.733 276.065L517.645 267.335L536.07 262.867C539.701 262.974 548.048 265.297 552.392 273.729C556.737 282.162 551.069 294.801 547.691 300.067C547.691 300.067 545.116 299.299 543.399 298.403C531.615 292.249 516.04 284.504 516.04 284.504Z" fill="white"/>
<path d="M580.048 266.752L575.141 265.395C574.474 268.506 573.116 275.751 573.049 279.084C572.966 283.25 581.548 290.082 587.963 293.832C594.379 297.581 602.294 291.832 609.626 289.332C615.492 287.333 618.347 278.167 619.042 273.835L614.042 273.168C609.321 272.529 602.968 271.729 596.033 270.388C589.687 269.161 584.158 267.863 580.048 266.752Z" fill="white"/>
<path d="M651.198 311.702L652.327 304.233C649.754 300.664 625.746 295.685 624.994 295.627C624.053 295.553 610.884 298.563 610.492 298.636C610.179 298.695 604.504 313.685 601.761 321.05L607.149 322.814L651.198 311.702Z" fill="white"/>
<path d="M705.779 401.017L708.807 400.701L708.413 414.19L676.957 421.424L674.396 421.029L656.446 418.227L653.885 417.795L649.582 396.425H686.124L688.775 396.632L700.037 401.774L705.779 401.017Z" fill="white"/>
<path d="M513.094 235.563C516.421 237.092 515.876 237.271 517.224 238.197C516.24 241.928 515.349 246.182 511.823 249.339C509.238 251.654 505.606 253.644 496.325 252.742C486.198 251.758 485.133 246.19 483.083 239.466L483.125 226.267C483.125 217.329 484.435 210.512 484.681 208.503C484.927 206.495 489.064 224.517 513.094 235.563Z" fill="white"/>
<path d="M357.68 60.8891C360.102 60.8891 362.066 62.8287 362.066 65.2214C362.066 67.6141 360.102 69.5537 357.68 69.5537C355.258 69.5537 353.294 67.6141 353.294 65.2214C353.294 62.8287 355.258 60.8891 357.68 60.8891ZM418.371 90.1844C415.612 90.2851 412.595 89.1749 410.195 87.0098C407.443 84.5255 406.013 81.1924 406.371 78.0849C406.845 73.8024 410.481 70.029 414.795 69.0238C417.334 75.2084 418.514 82.5253 418.371 90.1844ZM365.563 85.3031C362.928 87.3264 360.169 88.3185 357.523 88.5705C359.858 86.3544 361.88 83.8206 363.519 81.0203C364.115 80.0012 363.764 78.6959 362.73 78.1057C361.697 77.5172 360.377 77.8645 359.78 78.885C358.321 81.3779 356.525 83.6349 354.441 85.5947C353.565 86.419 352.594 87.1506 351.618 87.8688C349.67 87.2285 347.912 86.2526 346.535 85.0167C341.943 80.8937 339.391 72.8227 346.016 62.5092C346.352 61.9694 354.441 49.2859 369.98 46.675C392.793 42.9148 405.578 55.2233 410.01 60.6951C411.101 62.0405 412.045 63.5469 412.922 65.1201C407.252 66.8137 402.724 71.8019 402.077 77.6127C401.567 82.0673 403.515 86.7563 407.282 90.1591C410.403 92.975 414.256 94.5235 417.95 94.5235C418.019 94.5235 418.085 94.5033 418.154 94.5022C417.237 105.69 410.259 121.222 409.259 122.222C407.759 121.722 406.473 121.342 404.911 120.821C403.411 120.321 401.9 119.887 401.9 119.887L399.823 119.243C399.823 119.243 398.062 118.814 398.203 118.66C401.432 115.131 401.912 112.172 401.029 107.672C400.226 103.581 397.897 100.138 394.756 98.0071C395.82 92.2845 395.139 87.2345 391.931 83.6841C384.625 75.569 373.524 79.2045 365.563 85.3031ZM393.627 102.534C395.175 104.048 396.322 106.108 396.786 108.484C397.416 111.691 396.042 115.705 394.281 117.672C392.444 117.197 389.563 116.469 386.09 115.602C389.805 110.096 391.923 107.832 393.627 102.534Z" fill="#FFD43B"/>
<path d="M357.68 60.8891C360.102 60.8891 362.066 62.8287 362.066 65.2214C362.066 67.6141 360.102 69.5537 357.68 69.5537C355.258 69.5537 353.294 67.6141 353.294 65.2214C353.294 62.8287 355.258 60.8891 357.68 60.8891ZM418.371 90.1844C415.612 90.2851 412.595 89.1749 410.195 87.0098C407.443 84.5255 406.013 81.1924 406.371 78.0849C406.845 73.8024 410.481 70.029 414.795 69.0238C417.334 75.2084 418.514 82.5253 418.371 90.1844ZM365.563 85.3031C362.928 87.3264 360.169 88.3185 357.523 88.5705C359.858 86.3544 361.88 83.8206 363.519 81.0203C364.115 80.0012 363.764 78.6959 362.73 78.1057C361.697 77.5172 360.377 77.8645 359.78 78.885C358.321 81.3779 356.525 83.6349 354.441 85.5947C353.565 86.419 352.594 87.1506 351.618 87.8688C349.67 87.2285 347.912 86.2526 346.535 85.0167C341.943 80.8937 339.391 72.8227 346.016 62.5092C346.352 61.9694 354.441 49.2859 369.98 46.675C392.793 42.9148 405.578 55.2233 410.01 60.6951C411.101 62.0405 412.045 63.5469 412.922 65.1201C407.252 66.8137 402.724 71.8019 402.077 77.6127C401.567 82.0673 403.515 86.7563 407.282 90.1591C410.403 92.975 414.256 94.5235 417.95 94.5235C418.019 94.5235 418.085 94.5033 418.154 94.5022C417.237 105.69 410.259 121.222 409.259 122.222C407.759 121.722 406.473 121.342 404.911 120.821C403.411 120.321 401.9 119.887 401.9 119.887L399.823 119.243C399.823 119.243 398.062 118.814 398.203 118.66C401.432 115.131 401.912 112.172 401.029 107.672C400.226 103.581 397.897 100.138 394.756 98.0071C395.82 92.2845 395.139 87.2345 391.931 83.6841C384.625 75.569 373.524 79.2045 365.563 85.3031ZM393.627 102.534C395.175 104.048 396.322 106.108 396.786 108.484C397.416 111.691 396.042 115.705 394.281 117.672C392.444 117.197 389.563 116.469 386.09 115.602C389.805 110.096 391.923 107.832 393.627 102.534Z" fill="#FFD43B"/>
<path d="M601.274 368.194C613.955 372.381 617.7 376.016 643.073 382.764L637.487 402.065L608.987 389.565C599.987 379.898 592.767 365.385 601.274 368.194Z" fill="white"/>
<path d="M547.888 379.771C552.34 381.726 566.597 387.853 586.369 396.686C591.125 398.81 596.987 392.565 596.987 392.565L584.487 372.565L565.487 363.065C557.987 367.898 543.943 378.039 547.888 379.771Z" fill="white"/>
<path d="M542.258 337.439C546.856 339.545 549.854 342.025 553.987 344.565C548.987 350.065 539.687 361.665 538.487 362.065C537.287 362.465 514.865 359.147 513.892 351.366C513.537 348.522 514.021 344.34 514.021 344.34C520.187 340.673 539.151 336.016 542.258 337.439Z" fill="white"/>
<path d="M638.202 381.396C636.39 386.022 636.209 387.924 632.538 389.303C624.389 392.346 614.878 385.558 611.442 377.543C610.63 375.673 610.059 373.5 609.755 371.371C619.333 374.618 626.492 378.324 638.202 381.396ZM516.988 332.013C522.105 326.829 535.698 334.38 541.765 337.036C542.937 337.549 544.11 338.187 545.273 338.945C545.427 339.046 545.585 339.146 545.74 339.246C545.921 341.44 545.74 343.571 545.169 345.337C543.964 349.046 540.924 351.802 536.829 352.898C532.027 354.183 527.106 351.906 523.055 349.653C520.686 348.335 513.871 346.03 513.871 346.03C513.747 343.471 514.743 333.963 516.988 332.013ZM518.157 361.816C515.695 358.988 513.827 352.637 513.871 351.256C513.942 349.056 520.363 352.892 520.932 353.41C522.437 354.751 524.134 355.824 525.944 356.616C529.777 358.294 534.104 358.694 538.115 357.621C543.346 356.218 547.277 352.546 548.903 347.547C549.457 345.83 549.735 343.855 549.779 341.827C565.715 352.004 583.524 361.79 605.647 369.733C605.911 372.943 606.699 376.469 607.953 379.367C610.724 385.821 615.774 390.756 621.327 393.187C625.563 395.042 630.089 395.436 634.11 393.929C639.21 392.016 640.769 389.271 642.866 382.714C644.478 383.023 646.397 383.944 648.321 384.625C658.037 388.064 662.233 391.853 668.061 397.858C669.486 401.84 672.76 399.874 672.313 403.526C665.767 396.542 654.336 399.398 646.79 404.766C642.434 407.888 643.428 409.616 642.813 415.545L586.985 396.956C587.728 393.79 587.807 390.464 587.154 387.192C586.041 381.565 582.881 376.525 578.253 373.004C573.043 369.027 566.902 367.684 561.83 369.402C556.74 371.135 552.717 375.759 551.253 381.312L537.999 375.509C527.67 370.987 520.32 367.019 518.157 361.816ZM555.14 383.014C556.311 378.908 559.453 375.377 563.311 374.065C567.262 372.728 572.289 373.848 576.429 377.007C580.015 379.739 582.449 383.565 583.285 387.785C583.774 390.237 583.693 392.827 583.113 395.26L555.14 383.014Z" fill="#FFD43B"/>
<path d="M705.809 400.991C704.537 404.766 704.151 405.667 703.614 406.434C702.082 408.628 692.99 406.226 690.263 400.911C689.62 399.672 689.1 398.147 688.746 396.593C694.835 396.839 703.952 401.287 705.809 400.991ZM633.194 410.155C632.922 409.146 632.192 403.723 632.109 402.659C632.481 402.989 632.85 403.333 633.237 403.595C634.26 404.268 635.378 404.691 636.543 404.874C639.01 405.261 641.677 404.557 644.034 402.803C647.108 400.513 649.21 396.794 649.804 392.6C650.005 391.16 650.877 387.107 650.743 385.549C661.254 389.6 672.025 395.536 686.126 396.439C686.541 398.827 687.289 401.196 688.283 403.116C690.481 407.395 693.948 409.984 697.522 410.545C700.248 410.973 701.774 411.558 704.132 409.797C706.035 408.375 707.337 407.184 708.181 404.044C708.515 402.803 708.696 400.677 708.696 400.677C708.696 400.677 714.749 401.005 718.422 402.782C722.944 404.97 729.116 409.017 729.133 411.908C725.602 421.023 709.45 420.183 709.45 420.183C709.45 420.183 695.669 420.086 688.496 420.421C681.322 420.756 676.91 421.428 676.91 421.428C677.111 418.838 676.896 416.281 676.239 413.937C675.115 409.902 672.791 406.792 669.694 405.184C666.206 403.364 662.36 403.771 659.408 406.265C656.446 408.774 654.364 413.241 653.912 417.82L645.382 416.482C638.734 415.439 636.06 413.535 633.194 410.155ZM656.414 418.212C656.802 414.806 658.434 411.379 660.679 409.478C662.979 407.537 666.129 407.219 668.901 408.665C671.301 409.913 673.086 412.266 673.93 415.291C674.422 417.048 674.578 419.044 674.418 421.036L656.414 418.212Z" fill="#FFD43B"/>
<path d="M614.174 273.243C611.007 279.002 606.66 283.503 602.09 285.581C591.95 290.172 582.501 283.126 580.371 273.908C579.863 271.758 579.703 269.218 579.843 266.699C590.186 269.49 601.547 271.732 614.174 273.243ZM483.212 202.519C490.374 212.326 496.093 225.236 509.021 233.356C510.26 233.836 511.471 234.466 512.643 235.241C512.798 235.344 512.958 235.446 513.114 235.549C512.818 238.159 512.637 239.754 511.567 241.939C508.723 247.751 505.912 247.631 501.056 247.981C496.894 248.281 494.51 247.242 491.597 244.257C488.475 241.057 483.106 231.103 483.106 225.642C483.106 223.341 482.546 211.128 483.212 202.519ZM486.666 259.31L483.155 255.585C483.155 255.585 482.979 238.863 483.095 239.478C483.211 240.092 485.834 246.732 489.7 249.467C493.566 252.202 496.105 253.178 500.704 252.879C506.613 252.494 511.824 251.325 514.861 245.141C515.9 243.018 516.665 240.645 517.184 238.206C533.292 248.576 551.625 258.448 575.416 265.424C574.981 269.244 575.126 273.167 575.909 276.499C577.628 283.921 582.338 289.259 588.208 291.534C592.687 293.27 597.838 293.221 602.844 290.95C609.192 288.066 614.937 281.839 618.879 273.731C620.675 273.916 622.436 274.121 624.283 274.276L624.286 274.277C648.161 275.288 653.696 292.043 653.696 292.043C653.696 292.043 653.643 300.25 652.281 304.682C646.277 299.137 624.356 297.711 615.028 302.486C609.262 306.733 604.396 314.059 602.316 321.242L547.562 300.017C549.154 296.133 550.014 292.134 550.012 288.285C550.022 281.663 547.526 275.981 542.979 272.292C537.862 268.122 531.059 267.22 524.788 269.866C518.493 272.532 515.403 276.003 512.425 282.833C512.425 282.833 498.515 274.71 492.365 266.655C488.344 261.388 486.666 259.31 486.666 259.31ZM515.512 284.197C517.816 279.137 520.655 277.307 525.427 275.288C530.311 273.229 535.876 273.993 539.942 277.305C543.465 280.167 545.4 284.477 545.394 289.442C545.394 292.327 544.703 295.443 543.469 298.429L515.512 284.197ZM606.464 322.703C607.971 316.954 612.035 310.757 616.726 307.303C625.042 301.208 651.31 311.131 651.278 311.583C650.536 321.928 649.026 324.825 646.059 328.217C640.476 334.6 618.709 326.715 606.464 322.703Z" fill="#FFD43B"/>
<path fill-rule="evenodd" clip-rule="evenodd" d="M442.912 189.286C446.649 188.491 450.606 185.86 453.887 182.103C444.728 178.917 436.627 175.395 429.373 171.632C428.865 173.48 428.577 175.391 428.611 177.071C428.72 184.261 434.626 191.036 442.912 189.286ZM377.811 132.862C374.01 139.965 376.332 153.733 376.332 153.733C376.332 153.733 380.039 169.454 381.207 170.137C381.811 169.634 382.302 169.253 382.648 168.985C382.929 168.768 383.114 168.625 383.186 168.55C383.347 168.383 388.979 165.095 392.602 165.15C396.593 165.21 397.886 165.826 401.028 169.758C403.822 173.24 404.77 177.866 403.702 182.78C403.086 185.637 401.805 188.465 399.997 191.088L437.366 215.795C440.066 210.803 444.863 206.16 449.837 203.95C458.281 200.225 462.767 203.713 465.64 205.947C465.694 205.989 465.747 206.03 465.799 206.071C465.799 205.313 465.798 204.54 465.796 203.761C465.789 199.915 465.782 195.93 465.944 192.983C465.798 188.505 465.851 188.723 465.9 188.923C465.923 189.017 465.944 189.106 465.944 188.711C465.944 188.711 464.061 186.34 461.798 185.152C460.111 184.267 458.62 183.665 457.312 183.234C453.078 188.609 447.802 192.291 442.613 193.394C438.522 194.262 434.678 193.457 431.622 191.436C427.616 188.787 424.964 184.054 424.873 178.264C424.824 175.663 425.345 172.727 426.281 169.962C409.684 160.895 408.333 157.389 408.333 157.389C408.333 157.389 407.687 156.931 406.85 156.16C402.147 155.965 391.144 154.031 390.532 145.144C390.019 137.673 390.885 136.279 392.294 135.224C388.666 134.253 384.541 133.216 380.301 132.208C379.074 131.916 378.673 131.718 378.431 131.838C378.237 131.935 378.145 132.237 377.811 132.862ZM396.545 136.399C390.829 144.441 398.943 151.675 402.871 151.675C403.109 151.675 403.341 151.695 403.565 151.734C403.372 151.241 403.235 150.733 403.175 150.216C402.514 144.435 403.702 138.675 403.702 138.675C403.702 138.675 403.416 138.451 398.754 137.047C398.061 136.838 397.323 136.622 396.545 136.399ZM388.848 169.557C386.622 170.3 385.82 170.568 383.401 173.803L397.204 189.24C398.602 187.225 399.616 185.025 400.078 182.884C400.878 179.199 400.127 175.684 397.963 172.983C395.466 169.859 393.192 168.099 389.155 169.454C389.05 169.49 388.948 169.524 388.848 169.557ZM450.33 207.804C446.283 209.6 442.264 213.536 440.22 217.557C442.049 218.632 444.097 219.756 446.223 220.924C453.951 225.167 462.713 229.979 465.736 235.021C465.95 229.796 465.864 220.034 465.819 214.997C465.808 213.695 465.799 212.708 465.799 212.198C463.635 207.555 457.499 204.638 450.33 207.804Z" fill="#FFD43B"/>
<path d="M351.96 64.675C351.96 67.7126 354.423 70.175 357.46 70.175C360.498 70.175 362.96 67.7126 362.96 64.675C362.96 61.6375 360.498 59.175 357.46 59.175C354.423 59.175 351.96 61.6375 351.96 64.675Z" fill="white"/>
<path d="M362.489 78.0019C361.961 77.4098 360.752 78.0019 360.752 78.0019C360.752 78.0019 357.369 84.09 352.369 88.175C350.369 89.809 349.947 91.5721 349.507 92.559C349.067 93.546 345.03 95.1881 344.369 96.175C343.709 97.1619 343.346 97.0002 343.786 98.2338C344.138 99.2208 345.253 99.1385 345.766 98.974L349.507 96.6732C349.58 97.7424 349.727 100.078 349.727 100.868C349.727 101.855 350.387 102.675 351.707 102.675C352.764 102.675 353.028 101.688 353.028 101.195L352.588 94.2862C353.321 93.6282 353.833 92.1148 354.788 90.8319C355.945 89.2787 358.089 87.131 358.089 87.131C358.089 87.131 359.809 85.6297 360.869 84.175C361.897 82.7649 363.369 79.9758 363.369 79.9758C363.296 79.5646 363.017 78.5941 362.489 78.0019Z" fill="black"/>
<mask id="path-42-outside-1_13_65" maskUnits="userSpaceOnUse" x="128.058" y="316.665" width="239" height="237" fill="black">
<rect fill="white" x="128.058" y="316.665" width="239" height="237"/>
<path d="M158.117 458.665V487.815C158.117 488.732 158.576 489.19 159.492 489.19H170.492C171.409 489.19 171.867 488.732 171.867 487.815V438.315L150.142 428.69C148.492 428.14 146.201 427.224 143.267 425.94C140.334 424.474 137.676 422.365 135.292 419.615C133.092 416.865 131.992 413.107 131.992 408.34V345.64C131.992 337.94 134.376 331.799 139.142 327.215C143.909 322.449 150.142 320.065 157.842 320.065H172.142C179.842 320.065 186.076 322.449 190.842 327.215C195.609 331.799 197.992 337.94 197.992 345.64V386.34L171.867 384.14V347.015C171.867 346.099 171.409 345.64 170.492 345.64H159.492C158.576 345.64 158.117 346.099 158.117 347.015V404.49L179.842 414.115C181.492 414.849 183.784 415.857 186.717 417.14C189.651 418.424 192.217 420.44 194.417 423.19C196.801 425.94 197.992 429.699 197.992 434.465V489.19C197.992 496.89 195.609 503.124 190.842 507.89C186.076 512.474 179.842 514.765 172.142 514.765H157.842C150.142 514.765 143.909 512.474 139.142 507.89C134.376 503.124 131.992 496.89 131.992 489.19V458.665H158.117ZM236.842 513.665C228.409 513.665 221.626 511.282 216.492 506.515C211.542 501.565 209.067 495.424 209.067 488.09V401.74H204.942L207.692 376.165H235.192V488.09H251.142V376.165H277.267V526.59C277.267 533.74 274.792 539.424 269.842 543.64C264.892 548.04 258.751 550.24 251.417 550.24H234.917C227.217 550.24 220.984 547.857 216.217 543.09C211.451 538.507 209.067 532.365 209.067 524.665V519.165H235.192V526.59H251.142V502.94L244.267 513.665H236.842ZM316.066 513.665C307.633 513.665 300.849 511.282 295.716 506.515C290.766 501.565 288.291 495.424 288.291 488.09V401.74C288.291 394.224 290.766 388.082 295.716 383.315C300.849 378.549 307.633 376.165 316.066 376.165H317.166C322.116 376.165 326.516 377.357 330.366 379.74V346.74H323.766L326.516 321.165H356.491V488.09H360.341L363.091 513.665H330.366V502.94L323.491 513.665H316.066ZM315.791 401.74C314.874 401.74 314.416 402.199 314.416 403.115V486.715C314.416 487.632 314.874 488.09 315.791 488.09H330.366V401.74H315.791Z"/>
</mask>
<path d="M158.117 458.665V487.815C158.117 488.732 158.576 489.19 159.492 489.19H170.492C171.409 489.19 171.867 488.732 171.867 487.815V438.315L150.142 428.69C148.492 428.14 146.201 427.224 143.267 425.94C140.334 424.474 137.676 422.365 135.292 419.615C133.092 416.865 131.992 413.107 131.992 408.34V345.64C131.992 337.94 134.376 331.799 139.142 327.215C143.909 322.449 150.142 320.065 157.842 320.065H172.142C179.842 320.065 186.076 322.449 190.842 327.215C195.609 331.799 197.992 337.94 197.992 345.64V386.34L171.867 384.14V347.015C171.867 346.099 171.409 345.64 170.492 345.64H159.492C158.576 345.64 158.117 346.099 158.117 347.015V404.49L179.842 414.115C181.492 414.849 183.784 415.857 186.717 417.14C189.651 418.424 192.217 420.44 194.417 423.19C196.801 425.94 197.992 429.699 197.992 434.465V489.19C197.992 496.89 195.609 503.124 190.842 507.89C186.076 512.474 179.842 514.765 172.142 514.765H157.842C150.142 514.765 143.909 512.474 139.142 507.89C134.376 503.124 131.992 496.89 131.992 489.19V458.665H158.117ZM236.842 513.665C228.409 513.665 221.626 511.282 216.492 506.515C211.542 501.565 209.067 495.424 209.067 488.09V401.74H204.942L207.692 376.165H235.192V488.09H251.142V376.165H277.267V526.59C277.267 533.74 274.792 539.424 269.842 543.64C264.892 548.04 258.751 550.24 251.417 550.24H234.917C227.217 550.24 220.984 547.857 216.217 543.09C211.451 538.507 209.067 532.365 209.067 524.665V519.165H235.192V526.59H251.142V502.94L244.267 513.665H236.842ZM316.066 513.665C307.633 513.665 300.849 511.282 295.716 506.515C290.766 501.565 288.291 495.424 288.291 488.09V401.74C288.291 394.224 290.766 388.082 295.716 383.315C300.849 378.549 307.633 376.165 316.066 376.165H317.166C322.116 376.165 326.516 377.357 330.366 379.74V346.74H323.766L326.516 321.165H356.491V488.09H360.341L363.091 513.665H330.366V502.94L323.491 513.665H316.066ZM315.791 401.74C314.874 401.74 314.416 402.199 314.416 403.115V486.715C314.416 487.632 314.874 488.09 315.791 488.09H330.366V401.74H315.791Z" fill="#FFD43B"/>
<path d="M158.117 458.665H161.117V455.665H158.117V458.665ZM171.867 438.315H174.867V436.363L173.082 435.572L171.867 438.315ZM150.142 428.69L151.357 425.947L151.227 425.889L151.091 425.844L150.142 428.69ZM143.267 425.94L141.926 428.624L141.994 428.658L142.065 428.689L143.267 425.94ZM135.292 419.615L132.95 421.489L132.986 421.535L133.025 421.58L135.292 419.615ZM139.142 327.215L141.222 329.378L141.243 329.357L141.264 329.337L139.142 327.215ZM190.842 327.215L188.721 329.337L188.742 329.357L188.763 329.378L190.842 327.215ZM197.992 386.34L197.74 389.33L200.992 389.604V386.34H197.992ZM171.867 384.14H168.867V386.898L171.615 387.13L171.867 384.14ZM158.117 404.49H155.117V406.442L156.902 407.233L158.117 404.49ZM179.842 414.115L181.061 411.374L181.057 411.372L179.842 414.115ZM194.417 423.19L192.075 425.064L192.111 425.11L192.15 425.155L194.417 423.19ZM190.842 507.89L192.922 510.053L192.943 510.032L192.964 510.012L190.842 507.89ZM139.142 507.89L137.021 510.012L137.042 510.032L137.063 510.053L139.142 507.89ZM131.992 458.665V455.665H128.992V458.665H131.992ZM155.117 458.665V487.815H161.117V458.665H155.117ZM155.117 487.815C155.117 488.736 155.349 489.978 156.34 490.968C157.33 491.958 158.571 492.19 159.492 492.19V486.19C159.496 486.19 160.05 486.193 160.582 486.725C161.114 487.257 161.117 487.811 161.117 487.815H155.117ZM159.492 492.19H170.492V486.19H159.492V492.19ZM170.492 492.19C171.413 492.19 172.655 491.958 173.645 490.968C174.635 489.978 174.867 488.736 174.867 487.815H168.867C168.867 487.811 168.87 487.257 169.402 486.725C169.934 486.193 170.488 486.19 170.492 486.19V492.19ZM174.867 487.815V438.315H168.867V487.815H174.867ZM173.082 435.572L151.357 425.947L148.927 431.433L170.652 441.058L173.082 435.572ZM151.091 425.844C149.57 425.337 147.376 424.464 144.47 423.192L142.065 428.689C145.025 429.984 147.414 430.943 149.194 431.536L151.091 425.844ZM144.609 423.257C142.065 421.985 139.713 420.135 137.559 417.65L133.025 421.58C135.638 424.595 138.603 426.962 141.926 428.624L144.609 423.257ZM137.635 417.741C135.989 415.684 134.992 412.665 134.992 408.34H128.992C128.992 413.548 130.195 418.046 132.95 421.489L137.635 417.741ZM134.992 408.34V345.64H128.992V408.34H134.992ZM134.992 345.64C134.992 338.61 137.141 333.302 141.222 329.378L137.063 325.053C131.611 330.295 128.992 337.27 128.992 345.64H134.992ZM141.264 329.337C145.386 325.214 150.815 323.065 157.842 323.065V317.065C149.47 317.065 142.432 319.683 137.021 325.094L141.264 329.337ZM157.842 323.065H172.142V317.065H157.842V323.065ZM172.142 323.065C179.17 323.065 184.598 325.214 188.721 329.337L192.964 325.094C187.553 319.683 180.515 317.065 172.142 317.065V323.065ZM188.763 329.378C192.844 333.302 194.992 338.61 194.992 345.64H200.992C200.992 337.27 198.374 330.295 192.922 325.053L188.763 329.378ZM194.992 345.64V386.34H200.992V345.64H194.992ZM198.244 383.351L172.119 381.151L171.615 387.13L197.74 389.33L198.244 383.351ZM174.867 384.14V347.015H168.867V384.14H174.867ZM174.867 347.015C174.867 346.095 174.635 344.853 173.645 343.863C172.655 342.873 171.413 342.64 170.492 342.64V348.64C170.488 348.64 169.934 348.637 169.402 348.105C168.87 347.573 168.867 347.019 168.867 347.015H174.867ZM170.492 342.64H159.492V348.64H170.492V342.64ZM159.492 342.64C158.571 342.64 157.33 342.873 156.34 343.863C155.349 344.853 155.117 346.095 155.117 347.015H161.117C161.117 347.019 161.114 347.573 160.582 348.105C160.05 348.637 159.496 348.64 159.492 348.64V342.64ZM155.117 347.015V404.49H161.117V347.015H155.117ZM156.902 407.233L178.627 416.858L181.057 411.372L159.332 401.747L156.902 407.233ZM178.624 416.857C180.282 417.594 182.579 418.605 185.515 419.889L187.92 414.392C184.988 413.109 182.703 412.104 181.061 411.374L178.624 416.857ZM185.515 419.889C187.96 420.958 190.147 422.655 192.075 425.064L196.76 421.316C194.287 418.225 191.341 415.889 187.92 414.392L185.515 419.889ZM192.15 425.155C193.93 427.209 194.992 430.193 194.992 434.465H200.992C200.992 429.205 199.671 424.671 196.684 421.225L192.15 425.155ZM194.992 434.465V489.19H200.992V434.465H194.992ZM194.992 489.19C194.992 496.218 192.844 501.646 188.721 505.769L192.964 510.012C198.374 504.601 200.992 497.563 200.992 489.19H194.992ZM188.763 505.728C184.647 509.686 179.204 511.765 172.142 511.765V517.765C180.481 517.765 187.505 515.261 192.922 510.053L188.763 505.728ZM172.142 511.765H157.842V517.765H172.142V511.765ZM157.842 511.765C150.781 511.765 145.338 509.686 141.222 505.728L137.063 510.053C142.48 515.261 149.504 517.765 157.842 517.765V511.765ZM141.264 505.769C137.141 501.646 134.992 496.218 134.992 489.19H128.992C128.992 497.563 131.61 504.601 137.021 510.012L141.264 505.769ZM134.992 489.19V458.665H128.992V489.19H134.992ZM131.992 461.665H158.117V455.665H131.992V461.665ZM216.492 506.515L214.371 508.637L214.41 508.676L214.451 508.714L216.492 506.515ZM209.067 401.74H212.067V398.74H209.067V401.74ZM204.942 401.74L201.96 401.42L201.603 404.74H204.942V401.74ZM207.692 376.165V373.165H204.998L204.71 375.845L207.692 376.165ZM235.192 376.165H238.192V373.165H235.192V376.165ZM235.192 488.09H232.192V491.09H235.192V488.09ZM251.142 488.09V491.09H254.142V488.09H251.142ZM251.142 376.165V373.165H248.142V376.165H251.142ZM277.267 376.165H280.267V373.165H277.267V376.165ZM269.842 543.64L267.897 541.357L267.873 541.377L267.849 541.398L269.842 543.64ZM216.217 543.09L218.339 540.969L218.318 540.948L218.297 540.928L216.217 543.09ZM209.067 519.165V516.165H206.067V519.165H209.067ZM235.192 519.165H238.192V516.165H235.192V519.165ZM235.192 526.59H232.192V529.59H235.192V526.59ZM251.142 526.59V529.59H254.142V526.59H251.142ZM251.142 502.94H254.142V492.701L248.617 501.321L251.142 502.94ZM244.267 513.665V516.665H245.908L246.793 515.284L244.267 513.665ZM236.842 510.665C229.003 510.665 223.003 508.467 218.534 504.317L214.451 508.714C220.248 514.097 227.815 516.665 236.842 516.665V510.665ZM218.614 504.394C214.255 500.036 212.067 494.67 212.067 488.09H206.067C206.067 496.177 208.829 503.095 214.371 508.637L218.614 504.394ZM212.067 488.09V401.74H206.067V488.09H212.067ZM209.067 398.74H204.942V404.74H209.067V398.74ZM207.925 402.061L210.675 376.486L204.71 375.845L201.96 401.42L207.925 402.061ZM207.692 379.165H235.192V373.165H207.692V379.165ZM232.192 376.165V488.09H238.192V376.165H232.192ZM235.192 491.09H251.142V485.09H235.192V491.09ZM254.142 488.09V376.165H248.142V488.09H254.142ZM251.142 379.165H277.267V373.165H251.142V379.165ZM274.267 376.165V526.59H280.267V376.165H274.267ZM274.267 526.59C274.267 532.96 272.106 537.771 267.897 541.357L271.788 545.924C277.479 541.076 280.267 534.521 280.267 526.59H274.267ZM267.849 541.398C263.509 545.256 258.101 547.24 251.417 547.24V553.24C259.401 553.24 266.276 550.824 271.835 545.883L267.849 541.398ZM251.417 547.24H234.917V553.24H251.417V547.24ZM234.917 547.24C227.89 547.24 222.461 545.092 218.339 540.969L214.096 545.212C219.507 550.622 226.545 553.24 234.917 553.24V547.24ZM218.297 540.928C214.216 537.004 212.067 531.695 212.067 524.665H206.067C206.067 533.035 208.686 540.01 214.138 545.253L218.297 540.928ZM212.067 524.665V519.165H206.067V524.665H212.067ZM209.067 522.165H235.192V516.165H209.067V522.165ZM232.192 519.165V526.59H238.192V519.165H232.192ZM235.192 529.59H251.142V523.59H235.192V529.59ZM254.142 526.59V502.94H248.142V526.59H254.142ZM248.617 501.321L241.742 512.046L246.793 515.284L253.668 504.559L248.617 501.321ZM244.267 510.665H236.842V516.665H244.267V510.665ZM295.716 506.515L293.595 508.637L293.634 508.676L293.675 508.714L295.716 506.515ZM295.716 383.315L293.675 381.117L293.655 381.135L293.635 381.154L295.716 383.315ZM330.366 379.74L328.787 382.291L333.366 385.126V379.74H330.366ZM330.366 346.74H333.366V343.74H330.366V346.74ZM323.766 346.74L320.783 346.42L320.426 349.74H323.766V346.74ZM326.516 321.165V318.165H323.821L323.533 320.845L326.516 321.165ZM356.491 321.165H359.491V318.165H356.491V321.165ZM356.491 488.09H353.491V491.09H356.491V488.09ZM360.341 488.09L363.324 487.77L363.036 485.09H360.341V488.09ZM363.091 513.665V516.665H366.431L366.074 513.345L363.091 513.665ZM330.366 513.665H327.366V516.665H330.366V513.665ZM330.366 502.94H333.366V492.701L327.84 501.321L330.366 502.94ZM323.491 513.665V516.665H325.131L326.017 515.284L323.491 513.665ZM330.366 488.09V491.09H333.366V488.09H330.366ZM330.366 401.74H333.366V398.74H330.366V401.74ZM316.066 510.665C308.227 510.665 302.227 508.467 297.757 504.317L293.675 508.714C299.472 514.097 307.039 516.665 316.066 516.665V510.665ZM297.837 504.394C293.479 500.036 291.291 494.67 291.291 488.09H285.291C285.291 496.177 288.053 503.095 293.595 508.637L297.837 504.394ZM291.291 488.09V401.74H285.291V488.09H291.291ZM291.291 401.74C291.291 394.954 293.493 389.621 297.797 385.476L293.635 381.154C288.04 386.543 285.291 393.493 285.291 401.74H291.291ZM297.757 385.514C302.227 381.364 308.227 379.165 316.066 379.165V373.165C307.039 373.165 299.472 375.734 293.675 381.117L297.757 385.514ZM316.066 379.165H317.166V373.165H316.066V379.165ZM317.166 379.165C321.612 379.165 325.455 380.228 328.787 382.291L331.945 377.189C327.577 374.485 322.62 373.165 317.166 373.165V379.165ZM333.366 379.74V346.74H327.366V379.74H333.366ZM330.366 343.74H323.766V349.74H330.366V343.74ZM326.749 347.061L329.499 321.486L323.533 320.845L320.783 346.42L326.749 347.061ZM326.516 324.165H356.491V318.165H326.516V324.165ZM353.491 321.165V488.09H359.491V321.165H353.491ZM356.491 491.09H360.341V485.09H356.491V491.09ZM357.358 488.411L360.108 513.986L366.074 513.345L363.324 487.77L357.358 488.411ZM363.091 510.665H330.366V516.665H363.091V510.665ZM333.366 513.665V502.94H327.366V513.665H333.366ZM327.84 501.321L320.965 512.046L326.017 515.284L332.892 504.559L327.84 501.321ZM323.491 510.665H316.066V516.665H323.491V510.665ZM315.791 398.74C314.87 398.74 313.629 398.973 312.638 399.963C311.648 400.953 311.416 402.195 311.416 403.115H317.416C317.416 403.119 317.413 403.673 316.881 404.205C316.349 404.737 315.795 404.74 315.791 404.74V398.74ZM311.416 403.115V486.715H317.416V403.115H311.416ZM311.416 486.715C311.416 487.636 311.648 488.878 312.638 489.868C313.629 490.858 314.87 491.09 315.791 491.09V485.09C315.795 485.09 316.349 485.093 316.881 485.625C317.413 486.157 317.416 486.711 317.416 486.715H311.416ZM315.791 491.09H330.366V485.09H315.791V491.09ZM333.366 488.09V401.74H327.366V488.09H333.366ZM330.366 398.74H315.791V404.74H330.366V398.74Z" fill="#306998" mask="url(#path-42-outside-1_13_65)"/>
<mask id="path-44-outside-2_13_65" maskUnits="userSpaceOnUse" x="361.539" y="316.91" width="159" height="236" fill="black">
<rect fill="white" x="361.539" y="316.91" width="159" height="236"/>
<path d="M365.604 345.985L368.354 320.41H411.804C419.504 320.41 425.737 322.793 430.504 327.56C435.27 332.143 437.654 338.285 437.654 345.985V432.06C437.654 439.76 434.72 445.993 428.854 450.76C423.17 455.343 416.479 457.635 408.779 457.635H395.854V512.91H369.729V345.985H365.604ZM410.154 345.985H395.854V432.06H410.154C411.07 432.06 411.529 431.601 411.529 430.685V347.36C411.529 346.443 411.07 345.985 410.154 345.985ZM476.426 512.91C467.993 512.91 461.21 510.526 456.076 505.76C451.126 500.81 448.651 494.668 448.651 487.335V400.985H444.526L447.276 375.41H474.776V487.335H490.726V375.41H516.851V525.835C516.851 532.985 514.376 538.668 509.426 542.885C504.476 547.285 498.335 549.485 491.001 549.485H474.501C466.801 549.485 460.568 547.101 455.801 542.335C451.035 537.751 448.651 531.61 448.651 523.91V518.41H474.776V525.835H490.726V502.185L483.851 512.91H476.426Z"/>
</mask>
<g filter="url(#filter0_i_13_65)">
<path d="M365.604 345.985L368.354 320.41H411.804C419.504 320.41 425.737 322.793 430.504 327.56C435.27 332.143 437.654 338.285 437.654 345.985V432.06C437.654 439.76 434.72 445.993 428.854 450.76C423.17 455.343 416.479 457.635 408.779 457.635H395.854V512.91H369.729V345.985H365.604ZM410.154 345.985H395.854V432.06H410.154C411.07 432.06 411.529 431.601 411.529 430.685V347.36C411.529 346.443 411.07 345.985 410.154 345.985ZM476.426 512.91C467.993 512.91 461.21 510.526 456.076 505.76C451.126 500.81 448.651 494.668 448.651 487.335V400.985H444.526L447.276 375.41H474.776V487.335H490.726V375.41H516.851V525.835C516.851 532.985 514.376 538.668 509.426 542.885C504.476 547.285 498.335 549.485 491.001 549.485H474.501C466.801 549.485 460.568 547.101 455.801 542.335C451.035 537.751 448.651 531.61 448.651 523.91V518.41H474.776V525.835H490.726V502.185L483.851 512.91H476.426Z" fill="white"/>
</g>
<path d="M365.604 345.985L362.621 345.664L362.264 348.985H365.604V345.985ZM368.354 320.41V317.41H365.659L365.371 320.089L368.354 320.41ZM430.504 327.56L428.382 329.681L428.403 329.702L428.424 329.722L430.504 327.56ZM428.854 450.76L430.737 453.095L430.745 453.088L428.854 450.76ZM395.854 457.635V454.635H392.854V457.635H395.854ZM395.854 512.91V515.91H398.854V512.91H395.854ZM369.729 512.91H366.729V515.91H369.729V512.91ZM369.729 345.985H372.729V342.985H369.729V345.985ZM395.854 345.985V342.985H392.854V345.985H395.854ZM395.854 432.06H392.854V435.06H395.854V432.06ZM368.586 346.305L371.336 320.73L365.371 320.089L362.621 345.664L368.586 346.305ZM368.354 323.41H411.804V317.41H368.354V323.41ZM411.804 323.41C418.831 323.41 424.26 325.558 428.382 329.681L432.625 325.438C427.214 320.028 420.176 317.41 411.804 317.41V323.41ZM428.424 329.722C432.505 333.646 434.654 338.955 434.654 345.985H440.654C440.654 337.614 438.035 330.64 432.583 325.397L428.424 329.722ZM434.654 345.985V432.06H440.654V345.985H434.654ZM434.654 432.06C434.654 438.876 432.112 444.247 426.962 448.431L430.745 453.088C437.328 447.739 440.654 440.643 440.654 432.06H434.654ZM426.97 448.424C421.851 452.553 415.834 454.635 408.779 454.635V460.635C417.123 460.635 424.489 458.133 430.737 453.095L426.97 448.424ZM408.779 454.635H395.854V460.635H408.779V454.635ZM392.854 457.635V512.91H398.854V457.635H392.854ZM395.854 509.91H369.729V515.91H395.854V509.91ZM372.729 512.91V345.985H366.729V512.91H372.729ZM369.729 342.985H365.604V348.985H369.729V342.985ZM410.154 342.985H395.854V348.985H410.154V342.985ZM392.854 345.985V432.06H398.854V345.985H392.854ZM395.854 435.06H410.154V429.06H395.854V435.06ZM410.154 435.06C411.074 435.06 412.316 434.827 413.306 433.837C414.296 432.847 414.529 431.605 414.529 430.685H408.529C408.529 430.681 408.532 430.126 409.063 429.595C409.595 429.063 410.149 429.06 410.154 429.06V435.06ZM414.529 430.685V347.36H408.529V430.685H414.529ZM414.529 347.36C414.529 346.439 414.296 345.197 413.306 344.207C412.316 343.217 411.074 342.985 410.154 342.985V348.985C410.149 348.985 409.595 348.982 409.063 348.45C408.532 347.918 408.529 347.364 408.529 347.36H414.529ZM456.076 505.76L453.955 507.881L453.994 507.92L454.035 507.958L456.076 505.76ZM448.651 400.985H451.651V397.985H448.651V400.985ZM444.526 400.985L441.544 400.664L441.186 403.985H444.526V400.985ZM447.276 375.41V372.41H444.582L444.294 375.089L447.276 375.41ZM474.776 375.41H477.776V372.41H474.776V375.41ZM474.776 487.335H471.776V490.335H474.776V487.335ZM490.726 487.335V490.335H493.726V487.335H490.726ZM490.726 375.41V372.41H487.726V375.41H490.726ZM516.851 375.41H519.851V372.41H516.851V375.41ZM509.426 542.885L507.481 540.601L507.457 540.621L507.433 540.642L509.426 542.885ZM455.801 542.335L457.923 540.213L457.902 540.193L457.881 540.172L455.801 542.335ZM448.651 518.41V515.41H445.651V518.41H448.651ZM474.776 518.41H477.776V515.41H474.776V518.41ZM474.776 525.835H471.776V528.835H474.776V525.835ZM490.726 525.835V528.835H493.726V525.835H490.726ZM490.726 502.185H493.726V491.946L488.201 500.566L490.726 502.185ZM483.851 512.91V515.91H485.492L486.377 514.529L483.851 512.91ZM476.426 509.91C468.587 509.91 462.587 507.711 458.118 503.561L454.035 507.958C459.832 513.341 467.399 515.91 476.426 515.91V509.91ZM458.198 503.638C453.839 499.28 451.651 493.914 451.651 487.335H445.651C445.651 495.422 448.413 502.339 453.955 507.881L458.198 503.638ZM451.651 487.335V400.985H445.651V487.335H451.651ZM448.651 397.985H444.526V403.985H448.651V397.985ZM447.509 401.305L450.259 375.73L444.294 375.089L441.544 400.664L447.509 401.305ZM447.276 378.41H474.776V372.41H447.276V378.41ZM471.776 375.41V487.335H477.776V375.41H471.776ZM474.776 490.335H490.726V484.335H474.776V490.335ZM493.726 487.335V375.41H487.726V487.335H493.726ZM490.726 378.41H516.851V372.41H490.726V378.41ZM513.851 375.41V525.835H519.851V375.41H513.851ZM513.851 525.835C513.851 532.204 511.69 537.015 507.481 540.601L511.372 545.168C517.063 540.321 519.851 533.765 519.851 525.835H513.851ZM507.433 540.642C503.093 544.501 497.685 546.485 491.001 546.485V552.485C498.985 552.485 505.86 550.069 511.419 545.127L507.433 540.642ZM491.001 546.485H474.501V552.485H491.001V546.485ZM474.501 546.485C467.474 546.485 462.045 544.336 457.923 540.213L453.68 544.456C459.091 549.867 466.129 552.485 474.501 552.485V546.485ZM457.881 540.172C453.8 536.248 451.651 530.939 451.651 523.91H445.651C445.651 532.28 448.27 539.255 453.722 544.497L457.881 540.172ZM451.651 523.91V518.41H445.651V523.91H451.651ZM448.651 521.41H474.776V515.41H448.651V521.41ZM471.776 518.41V525.835H477.776V518.41H471.776ZM474.776 528.835H490.726V522.835H474.776V528.835ZM493.726 525.835V502.185H487.726V525.835H493.726ZM488.201 500.566L481.326 511.291L486.377 514.529L493.252 503.804L488.201 500.566ZM483.851 509.91H476.426V515.91H483.851V509.91Z" fill="#306998" mask="url(#path-44-outside-2_13_65)"/>
<circle cx="325.519" cy="325.913" r="320.897" stroke="url(#paint3_linear_13_65)" stroke-width="8"/>
</g>
<defs>
<filter id="filter0_i_13_65" x="362.264" y="317.41" width="157.588" height="240.075" filterUnits="userSpaceOnUse" color-interpolation-filters="sRGB">
<feFlood flood-opacity="0" result="BackgroundImageFix"/>
<feBlend mode="normal" in="SourceGraphic" in2="BackgroundImageFix" result="shape"/>
<feColorMatrix in="SourceAlpha" type="matrix" values="0 0 0 0 0 0 0 0 0 0 0 0 0 0 0 0 0 0 127 0" result="hardAlpha"/>
<feOffset dy="5"/>
<feGaussianBlur stdDeviation="5"/>
<feComposite in2="hardAlpha" operator="arithmetic" k2="-1" k3="1"/>
<feColorMatrix type="matrix" values="0 0 0 0 1 0 0 0 0 1 0 0 0 0 1 0 0 0 0.25 0"/>
<feBlend mode="normal" in2="shape" result="effect1_innerShadow_13_65"/>
</filter>
<linearGradient id="paint0_linear_13_65" x1="325.519" y1="1.01636" x2="325.519" y2="650.81" gradientUnits="userSpaceOnUse">
<stop stop-color="#0E1D45" stop-opacity="0.4"/>
<stop offset="1" stop-color="#0E1D45"/>
</linearGradient>
<linearGradient id="paint1_linear_13_65" x1="325.519" y1="1.01636" x2="325.519" y2="650.81" gradientUnits="userSpaceOnUse">
<stop offset="0.235" stop-color="#FF8345"/>
<stop offset="0.425" stop-color="#FFCFCF"/>
<stop offset="0.525" stop-color="#03346F"/>
<stop offset="0.835" stop-color="#134E90"/>
<stop offset="1" stop-color="#9FC5E4"/>
</linearGradient>
<linearGradient id="paint2_linear_13_65" x1="325.519" y1="1.01636" x2="325.519" y2="650.81" gradientUnits="userSpaceOnUse">
<stop offset="0.075" stop-color="#134A98"/>
<stop offset="0.5" stop-color="#1647B0"/>
<stop offset="1" stop-color="#C4E6FF"/>
</linearGradient>
<linearGradient id="paint3_linear_13_65" x1="325.519" y1="1.01636" x2="325.519" y2="650.81" gradientUnits="userSpaceOnUse">
<stop offset="0.155" stop-color="#13499C"/>
<stop offset="1" stop-color="#C4E6FF"/>
</linearGradient>
</defs>
</svg>
